name C:\Users\u0150099\Documents\master_thesis\3dpredictsim\Results\debug\Fal_s1_mtj_sc_cspx10_oy_MTPm_k1_d01_MTJm_nl_MG_exp_table_d01_PF_Natali2010_ls146_FDB_ig21.mot
datacolumns 130
datarows 4
range 0.53281109 0.56477976
endheader
time	pelvis_tilt	pelvis_list	pelvis_rotation	pelvis_tx	pelvis_ty	pelvis_tz	hip_flexion_l	hip_adduction_l	hip_rotation_l	hip_flexion_r	hip_adduction_r	hip_rotation_r	knee_angle_l	knee_angle_r	ankle_angle_l	ankle_angle_r	subtalar_angle_l	subtalar_angle_r	mtj_angle_l	mtj_angle_r	mtp_angle_l	mtp_angle_r	lumbar_extension	lumbar_bending	lumbar_rotation	arm_flex_l	arm_add_l	arm_rot_l	arm_flex_r	arm_add_r	arm_rot_r	elbow_flex_l	elbow_flex_r	pro_sup_l	pro_sup_r	glut_med1_l/activation	glut_med2_l/activation	glut_med3_l/activation	glut_min1_l/activation	glut_min2_l/activation	glut_min3_l/activation	semimem_l/activation	semiten_l/activation	bifemlh_l/activation	bifemsh_l/activation	sar_l/activation	add_long_l/activation	add_brev_l/activation	add_mag1_l/activation	add_mag2_l/activation	add_mag3_l/activation	tfl_l/activation	pect_l/activation	grac_l/activation	glut_max1_l/activation	glut_max2_l/activation	glut_max3_l/activation	iliacus_l/activation	psoas_l/activation	quad_fem_l/activation	gem_l/activation	peri_l/activation	rect_fem_l/activation	vas_med_l/activation	vas_int_l/activation	vas_lat_l/activation	med_gas_l/activation	lat_gas_l/activation	soleus_l/activation	tib_post_l/activation	flex_dig_l/activation	flex_hal_l/activation	tib_ant_l/activation	per_brev_l/activation	per_long_l/activation	per_tert_l/activation	ext_dig_l/activation	ext_hal_l/activation	FDB_l/activation	ercspn_l/activation	intobl_l/activation	extobl_l/activation	glut_med1_r/activation	glut_med2_r/activation	glut_med3_r/activation	glut_min1_r/activation	glut_min2_r/activation	glut_min3_r/activation	semimem_r/activation	semiten_r/activation	bifemlh_r/activation	bifemsh_r/activation	sar_r/activation	add_long_r/activation	add_brev_r/activation	add_mag1_r/activation	add_mag2_r/activation	add_mag3_r/activation	tfl_r/activation	pect_r/activation	grac_r/activation	glut_max1_r/activation	glut_max2_r/activation	glut_max3_r/activation	iliacus_r/activation	psoas_r/activation	quad_fem_r/activation	gem_r/activation	peri_r/activation	rect_fem_r/activation	vas_med_r/activation	vas_int_r/activation	vas_lat_r/activation	med_gas_r/activation	lat_gas_r/activation	soleus_r/activation	tib_post_r/activation	flex_dig_r/activation	flex_hal_r/activation	tib_ant_r/activation	per_brev_r/activation	per_long_r/activation	per_tert_r/activation	ext_dig_r/activation	ext_hal_r/activation	FDB_r/activation	ercspn_r/activation	intobl_r/activation	extobl_r/activation	
          0.53281109	         -2.92967504	          0.95674223	         -2.91686313	          0.70863875	          0.91430639	          0.00363862	         27.27624153	          3.26599189	         -2.52590321	        -19.44726148	          3.07937850	          6.71730931	         -9.60620240	         -5.50976974	          6.18334553	         -4.11649283	         -5.45638387	         -7.73927388	         -1.35459664	         -2.20939378	          8.16768386	         28.58431478	         -3.55545571	         -0.10037286	          1.38530939	         -3.78991610	        -13.46707067	          7.38142233	          3.87861342	        -13.75219225	         19.37682388	         25.06082698	         30.92375852	         86.51662706	         86.51662706	          0.05000359	          0.05000031	          0.05888011	          0.05000013	          0.05000019	          0.05000098	          0.24389783	          0.06933761	          0.33550689	          0.06933745	          0.05000141	          0.12240369	          0.15341812	          0.11262251	          0.13457806	          0.14548054	          0.05888001	          0.05092570	          0.14832598	          0.05888021	          0.05888064	          0.11672375	          0.05000019	          0.05000036	          0.14409959	          0.05000081	          0.05000021	          0.05000011	          0.05000047	          0.05000044	          0.05000041	          0.05677415	          0.05000761	          0.05000010	          0.06933716	          0.05000267	          0.05001669	          0.38743020	          0.22545056	          0.24076937	          0.11551944	          0.49832268	          0.07285767	          0.05669402	          0.05888022	          0.08171602	          0.10012870	          0.43676663	          0.06242459	          0.05392033	          0.52402336	          0.15211548	          0.08165151	          0.05000159	          0.05000024	          0.05000016	          0.06930877	          0.09615738	          0.07915824	          0.05000022	          0.05000054	          0.05000175	          0.05000128	          0.46216147	          0.05000137	          0.05000044	          0.05000182	          0.05000124	          0.05000118	          0.48444785	          0.83908669	          0.05000009	          0.05000029	          0.05000008	          0.32362691	          0.06274677	          0.06287792	          0.05053373	          0.31769748	          0.40421333	          0.26057894	          0.46561062	          0.30646425	          0.49433534	          0.05000001	          0.06933752	          0.30572140	          0.05000094	          0.05000007	          0.13945511	          0.79612903	          0.05000001	          0.05000001	          0.05000003	
          0.54346731	         -2.92981046	          1.04062802	         -3.16268429	          0.72523929	          0.91343179	          0.00348675	         26.97535316	          3.64744951	         -2.42004845	        -19.32429206	          2.83319726	          6.60859100	        -10.03911165	         -7.36753412	          5.64739603	         -4.43819447	         -5.68444311	         -6.76129019	         -1.05087449	         -3.54064188	          7.32579515	         31.69106087	         -3.41655250	         -0.29321119	          1.49706145	         -4.41311361	        -13.45068593	          6.96121003	          3.57961408	        -13.68956842	         19.25759383	         24.36073157	         32.05544664	         86.51662706	         86.51662706	          0.05888014	          0.05888013	          0.05000011	          0.05888027	          0.05888023	          0.05354587	          0.20711373	          0.05888033	          0.28579758	          0.05888022	          0.05000037	          0.14315889	          0.18463609	          0.09563739	          0.18117720	          0.15595552	          0.05000022	          0.05004386	          0.12595640	          0.05000031	          0.05000049	          0.16027191	          0.06853217	          0.06826150	          0.46560009	          0.17351349	          0.09422557	          0.05000008	          0.05000014	          0.05000013	          0.05000012	          0.05000003	          0.05000009	          0.05000000	          0.05888021	          0.05000031	          0.05717988	          0.40154790	          0.27643763	          0.25548013	          0.09809731	          0.54479744	          0.06503799	          0.06068921	          0.05000006	          0.06939179	          0.08502752	          0.39754217	          0.05300986	          0.05000001	          0.44499151	          0.12917379	          0.06933705	          0.05000149	          0.05000017	          0.05000012	          0.05885583	          0.08165524	          0.12229031	          0.07927403	          0.05000079	          0.05000205	          0.05000119	          0.47477576	          0.05890429	          0.05000029	          0.05000054	          0.05000037	          0.05000048	          0.41138450	          0.73860061	          0.05000003	          0.05000015	          0.05000014	          0.30563084	          0.10628300	          0.09289630	          0.06653851	          0.26978303	          0.34325076	          0.22502485	          0.39887371	          0.26024482	          0.44314259	          0.05000000	          0.05888019	          0.25961316	          0.05000012	          0.05000002	          0.11842293	          0.67605867	          0.05000002	          0.07185703	          0.06009270	
          0.55412353	         -2.92668419	          1.13934643	         -3.40041565	          0.74215679	          0.91259271	          0.00330850	         26.66230016	          3.97498724	         -2.30738723	        -19.11964203	          2.55316961	          6.45702506	        -11.04536735	         -9.31837078	          4.81225914	         -4.93036999	         -5.94258261	         -5.67588442	         -0.80753985	         -5.04969069	          6.48789909	         35.09753657	         -3.25912869	         -0.49750227	          1.60022322	         -5.07970719	        -13.45406493	          6.71147526	          3.18899247	        -13.63035965	         19.05731943	         23.69627387	         33.26585262	         86.51662706	         86.51662706	          0.05000001	          0.05000005	          0.13794707	          0.05000010	          0.05000008	          0.05000008	          0.17587730	          0.05000016	          0.24269421	          0.05000007	          0.06933676	          0.12156815	          0.31797467	          0.33217336	          0.19882683	          0.18938776	          0.05000083	          0.07723844	          0.10696014	          0.06029550	          0.13814994	          0.20520101	          0.05819652	          0.06933723	          0.51061292	          0.14734464	          0.08001477	          0.06669332	          0.08195979	          0.08566105	          0.06441463	          0.06933757	          0.06933953	          0.06933754	          0.05000003	          0.06933778	          0.06933687	          0.49804218	          0.31812705	          0.21694919	          0.27525493	          0.54826835	          0.05522912	          0.05153620	          0.05000000	          0.05892627	          0.07220386	          0.33758580	          0.05888003	          0.05888013	          0.37787893	          0.10969211	          0.05887995	          0.05002558	          0.05000354	          0.05737295	          0.05000015	          0.06934028	          0.19119468	          0.23098416	          0.05888024	          0.05886976	          0.05889027	          0.40317185	          0.05002106	          0.05886303	          0.05887825	          0.05887952	          0.05887965	          0.34934039	          0.68037735	          0.05888013	          0.05887994	          0.05000018	          0.25953636	          0.13822953	          0.15701780	          0.14044445	          0.22909492	          0.29148242	          0.19108708	          0.33871644	          0.22099531	          0.37630889	          0.05472235	          0.05000002	          0.22045887	          0.05000002	          0.05000002	          0.10056274	          0.57409707	          0.06746201	          0.06954674	          0.06933751	
          0.56477976	         -2.92034694	          1.27268464	         -3.63048240	          0.75932476	          0.91178372	          0.00313476	         26.26610600	          4.22133593	         -2.13113144	        -18.82724404	          2.23130854	          6.25389636	        -12.17771594	        -11.34991805	          3.90688971	         -5.64133304	         -6.20047846	         -4.57940465	         -0.61906039	         -6.72023355	          5.75529978	         38.75129010	         -3.08470288	         -0.73527992	          1.69668922	         -5.77394889	        -13.48137690	          6.61455150	          2.72043126	        -13.57501387	         18.82460343	         23.05693637	         34.54554203	         86.51662706	         86.51662706	          0.36836270	          0.34977965	          0.36409519	          0.44457904	          0.37245706	          0.30558209	          0.14935191	          0.13687603	          0.20609161	          0.08262907	          0.05888069	          0.10323355	          0.27001847	          0.28207579	          0.16884035	          0.23096901	          0.05000032	          0.06558997	          0.15907321	          0.21228464	          0.21136665	          0.23379181	          0.05888025	          0.05888021	          0.43360339	          0.12512251	          0.10465391	          0.05663478	          0.06959880	          0.07274185	          0.05469977	          0.05888023	          0.05888190	          0.05888020	          0.11267668	          0.05888047	          0.05888012	          0.60561373	          0.27014783	          0.24534039	          0.57627505	          0.68685432	          0.18425057	          0.44296231	          0.08344615	          0.08165212	          0.06131423	          0.32511176	          0.05000002	          0.05000000	          0.45906496	          0.09314862	          0.05000006	          0.05000114	          0.05000010	          0.05000005	          0.05000031	          0.05888267	          0.21817816	          0.21516177	          0.05000046	          0.05000086	          0.05000885	          0.47920821	          0.06040693	          0.05000019	          0.05000036	          0.05000023	          0.05000024	          0.29665368	          0.65905670	          0.05000002	          0.05000006	          0.05000002	          0.22039374	          0.11738219	          0.13333683	          0.11926302	          0.19454332	          0.24752166	          0.16226773	          0.28763195	          0.18766529	          0.31955484	          0.09835270	          0.05000145	          0.22180429	          0.05000067	          0.14400429	          0.08539616	          0.48751302	          0.08414140	          0.05905785	          0.05888018	
